{
	"patcher" : 	{
		"fileversion" : 1,
		"rect" : [ 2.0, 196.0, 640.0, 506.0 ],
		"bgcolor" : [ 0.368627, 0.360784, 0.360784, 1.0 ],
		"bglocked" : 0,
		"defrect" : [ 2.0, 196.0, 640.0, 506.0 ],
		"openrect" : [ 0.0, 0.0, 0.0, 0.0 ],
		"openinpresentation" : 0,
		"default_fontsize" : 12.0,
		"default_fontface" : 0,
		"default_fontname" : "Arial",
		"gridonopen" : 0,
		"gridsize" : [ 15.0, 15.0 ],
		"gridsnaponopen" : 0,
		"toolbarvisible" : 1,
		"boxanimatetime" : 200,
		"imprint" : 0,
		"metadata" : [  ],
		"boxes" : [ 			{
				"box" : 				{
					"maxclass" : "bpatcher",
					"name" : "ButtonThang.maxpat",
					"args" : [  ],
					"id" : "obj-11",
					"bgmode" : 2,
					"presentation_rect" : [ 495.0, 12.0, 0.0, 0.0 ],
					"numinlets" : 0,
					"bgcolor" : [ 0.564706, 0.560784, 0.560784, 1.0 ],
					"numoutlets" : 1,
					"patching_rect" : [ 523.0, 12.0, 49.0, 60.0 ],
					"outlettype" : [ "" ]
				}

			}
, 			{
				"box" : 				{
					"maxclass" : "bpatcher",
					"name" : "ButtonThang.maxpat",
					"args" : [  ],
					"id" : "obj-10",
					"bgmode" : 2,
					"presentation_rect" : [ 438.0, 11.0, 0.0, 0.0 ],
					"numinlets" : 0,
					"bgcolor" : [ 0.564706, 0.560784, 0.560784, 1.0 ],
					"numoutlets" : 1,
					"patching_rect" : [ 450.0, 12.0, 49.0, 60.0 ],
					"outlettype" : [ "" ]
				}

			}
, 			{
				"box" : 				{
					"maxclass" : "bpatcher",
					"name" : "ButtonThang.maxpat",
					"args" : [  ],
					"id" : "obj-9",
					"bgmode" : 2,
					"presentation_rect" : [ 364.0, 13.0, 0.0, 0.0 ],
					"numinlets" : 0,
					"bgcolor" : [ 0.564706, 0.560784, 0.560784, 1.0 ],
					"numoutlets" : 1,
					"patching_rect" : [ 380.0, 12.0, 49.0, 60.0 ],
					"outlettype" : [ "" ]
				}

			}
, 			{
				"box" : 				{
					"maxclass" : "bpatcher",
					"name" : "ButtonThang.maxpat",
					"args" : [  ],
					"id" : "obj-8",
					"bgmode" : 2,
					"presentation_rect" : [ 283.0, 16.0, 0.0, 0.0 ],
					"numinlets" : 0,
					"bgcolor" : [ 0.564706, 0.560784, 0.560784, 1.0 ],
					"numoutlets" : 1,
					"patching_rect" : [ 308.0, 12.0, 49.0, 60.0 ],
					"outlettype" : [ "" ]
				}

			}
, 			{
				"box" : 				{
					"maxclass" : "bpatcher",
					"name" : "ButtonThang.maxpat",
					"args" : [  ],
					"id" : "obj-7",
					"bgmode" : 2,
					"presentation_rect" : [ 215.0, 13.0, 0.0, 0.0 ],
					"numinlets" : 0,
					"bgcolor" : [ 0.564706, 0.560784, 0.560784, 1.0 ],
					"numoutlets" : 1,
					"patching_rect" : [ 237.0, 12.0, 49.0, 60.0 ],
					"outlettype" : [ "" ]
				}

			}
, 			{
				"box" : 				{
					"maxclass" : "bpatcher",
					"name" : "ButtonThang.maxpat",
					"args" : [  ],
					"id" : "obj-6",
					"bgmode" : 2,
					"presentation_rect" : [ 155.0, 12.0, 0.0, 0.0 ],
					"numinlets" : 0,
					"bgcolor" : [ 0.564706, 0.560784, 0.560784, 1.0 ],
					"numoutlets" : 1,
					"patching_rect" : [ 169.0, 12.0, 49.0, 60.0 ],
					"outlettype" : [ "" ]
				}

			}
, 			{
				"box" : 				{
					"maxclass" : "bpatcher",
					"name" : "ButtonThang.maxpat",
					"args" : [  ],
					"id" : "obj-5",
					"bgmode" : 2,
					"presentation_rect" : [ 90.0, 12.0, 0.0, 0.0 ],
					"numinlets" : 0,
					"bgcolor" : [ 0.564706, 0.560784, 0.560784, 1.0 ],
					"numoutlets" : 1,
					"patching_rect" : [ 97.0, 12.0, 49.0, 60.0 ],
					"outlettype" : [ "" ]
				}

			}
, 			{
				"box" : 				{
					"maxclass" : "bpatcher",
					"name" : "ButtonThang.maxpat",
					"args" : [  ],
					"id" : "obj-4",
					"bgmode" : 2,
					"numinlets" : 0,
					"bgcolor" : [ 0.564706, 0.560784, 0.560784, 1.0 ],
					"numoutlets" : 1,
					"patching_rect" : [ 25.0, 12.0, 49.0, 60.0 ],
					"outlettype" : [ "" ]
				}

			}
, 			{
				"box" : 				{
					"maxclass" : "bpatcher",
					"name" : "SerialMonitor.maxpat",
					"args" : [  ],
					"id" : "obj-3",
					"numinlets" : 0,
					"lockeddragscroll" : 1,
					"numoutlets" : 0,
					"offset" : [ 0.0, -224.0 ],
					"patching_rect" : [ 9.0, 274.0, 263.0, 197.0 ]
				}

			}
, 			{
				"box" : 				{
					"maxclass" : "bpatcher",
					"name" : "SerialOut.maxpat",
					"args" : [  ],
					"id" : "obj-1",
					"numinlets" : 0,
					"numoutlets" : 0,
					"offset" : [ 0.0, -140.0 ],
					"patching_rect" : [ 11.0, 176.0, 359.0, 63.0 ]
				}

			}
, 			{
				"box" : 				{
					"maxclass" : "bpatcher",
					"name" : "SerialBoard.maxpat",
					"args" : [ 1 ],
					"id" : "obj-2",
					"bgmode" : 2,
					"numinlets" : 8,
					"bgcolor" : [ 0.72549, 0.705882, 0.705882, 1.0 ],
					"numoutlets" : 0,
					"patching_rect" : [ 26.0, 80.0, 560.0, 81.0 ]
				}

			}
 ],
		"lines" : [ 			{
				"patchline" : 				{
					"source" : [ "obj-4", 0 ],
					"destination" : [ "obj-2", 0 ],
					"hidden" : 1,
					"midpoints" : [  ]
				}

			}
, 			{
				"patchline" : 				{
					"source" : [ "obj-5", 0 ],
					"destination" : [ "obj-2", 1 ],
					"hidden" : 1,
					"midpoints" : [ 99.0, 71.0 ]
				}

			}
, 			{
				"patchline" : 				{
					"source" : [ "obj-6", 0 ],
					"destination" : [ "obj-2", 2 ],
					"hidden" : 1,
					"midpoints" : [  ]
				}

			}
, 			{
				"patchline" : 				{
					"source" : [ "obj-7", 0 ],
					"destination" : [ "obj-2", 3 ],
					"hidden" : 1,
					"midpoints" : [  ]
				}

			}
, 			{
				"patchline" : 				{
					"source" : [ "obj-8", 0 ],
					"destination" : [ "obj-2", 4 ],
					"hidden" : 1,
					"midpoints" : [  ]
				}

			}
, 			{
				"patchline" : 				{
					"source" : [ "obj-9", 0 ],
					"destination" : [ "obj-2", 5 ],
					"hidden" : 1,
					"midpoints" : [  ]
				}

			}
, 			{
				"patchline" : 				{
					"source" : [ "obj-10", 0 ],
					"destination" : [ "obj-2", 6 ],
					"hidden" : 1,
					"midpoints" : [  ]
				}

			}
, 			{
				"patchline" : 				{
					"source" : [ "obj-11", 0 ],
					"destination" : [ "obj-2", 7 ],
					"hidden" : 1,
					"midpoints" : [  ]
				}

			}
 ]
	}

}
