{
	"patcher" : 	{
		"fileversion" : 1,
		"rect" : [ 554.0, 121.0, 640.0, 506.0 ],
		"bglocked" : 0,
		"defrect" : [ 554.0, 121.0, 640.0, 506.0 ],
		"openrect" : [ 0.0, 0.0, 0.0, 0.0 ],
		"openinpresentation" : 0,
		"default_fontsize" : 12.0,
		"default_fontface" : 0,
		"default_fontname" : "Arial",
		"gridonopen" : 0,
		"gridsize" : [ 15.0, 15.0 ],
		"gridsnaponopen" : 0,
		"toolbarvisible" : 1,
		"boxanimatetime" : 200,
		"imprint" : 0,
		"metadata" : [  ],
		"boxes" : [ 			{
				"box" : 				{
					"maxclass" : "bpatcher",
					"name" : "StatePixel.maxpat",
					"args" : [ "#1", 7 ],
					"id" : "obj-19",
					"numinlets" : 1,
					"numoutlets" : 0,
					"patching_rect" : [ 426.0, 30.0, 59.0, 48.0 ]
				}

			}
, 			{
				"box" : 				{
					"maxclass" : "bpatcher",
					"name" : "StatePixel.maxpat",
					"args" : [ "#1", 6 ],
					"id" : "obj-18",
					"numinlets" : 1,
					"numoutlets" : 0,
					"patching_rect" : [ 355.0, 30.0, 59.0, 48.0 ]
				}

			}
, 			{
				"box" : 				{
					"maxclass" : "bpatcher",
					"name" : "StatePixel.maxpat",
					"args" : [ "#1", 5 ],
					"id" : "obj-17",
					"numinlets" : 1,
					"numoutlets" : 0,
					"patching_rect" : [ 284.0, 30.0, 59.0, 48.0 ]
				}

			}
, 			{
				"box" : 				{
					"maxclass" : "bpatcher",
					"name" : "StatePixel.maxpat",
					"args" : [ "#1", 4 ],
					"id" : "obj-16",
					"numinlets" : 1,
					"numoutlets" : 0,
					"patching_rect" : [ 213.0, 30.0, 59.0, 48.0 ]
				}

			}
, 			{
				"box" : 				{
					"maxclass" : "bpatcher",
					"name" : "StatePixel.maxpat",
					"args" : [ "#1", 3 ],
					"id" : "obj-15",
					"numinlets" : 1,
					"numoutlets" : 0,
					"patching_rect" : [ 143.0, 30.0, 59.0, 48.0 ]
				}

			}
, 			{
				"box" : 				{
					"maxclass" : "bpatcher",
					"name" : "StatePixel.maxpat",
					"args" : [ "#1", 2 ],
					"id" : "obj-14",
					"numinlets" : 1,
					"numoutlets" : 0,
					"patching_rect" : [ 72.0, 30.0, 59.0, 48.0 ]
				}

			}
, 			{
				"box" : 				{
					"maxclass" : "bpatcher",
					"name" : "StatePixel.maxpat",
					"args" : [ "#1", 1 ],
					"id" : "obj-13",
					"numinlets" : 1,
					"numoutlets" : 0,
					"patching_rect" : [ 0.0, 30.0, 59.0, 48.0 ]
				}

			}
, 			{
				"box" : 				{
					"maxclass" : "bpatcher",
					"name" : "StatePixel.maxpat",
					"args" : [ "#1", 8 ],
					"id" : "obj-10",
					"numinlets" : 1,
					"numoutlets" : 0,
					"patching_rect" : [ 498.0, 30.0, 59.0, 48.0 ]
				}

			}
, 			{
				"box" : 				{
					"maxclass" : "inlet",
					"id" : "obj-8",
					"numinlets" : 0,
					"numoutlets" : 1,
					"patching_rect" : [ 500.0, 0.0, 25.0, 25.0 ],
					"outlettype" : [ "" ],
					"comment" : ""
				}

			}
, 			{
				"box" : 				{
					"maxclass" : "inlet",
					"id" : "obj-7",
					"numinlets" : 0,
					"numoutlets" : 1,
					"patching_rect" : [ 428.0, 0.0, 25.0, 25.0 ],
					"outlettype" : [ "" ],
					"comment" : ""
				}

			}
, 			{
				"box" : 				{
					"maxclass" : "inlet",
					"id" : "obj-6",
					"numinlets" : 0,
					"numoutlets" : 1,
					"patching_rect" : [ 357.0, 0.0, 25.0, 25.0 ],
					"outlettype" : [ "" ],
					"comment" : ""
				}

			}
, 			{
				"box" : 				{
					"maxclass" : "inlet",
					"id" : "obj-5",
					"numinlets" : 0,
					"numoutlets" : 1,
					"patching_rect" : [ 286.0, 0.0, 25.0, 25.0 ],
					"outlettype" : [ "" ],
					"comment" : ""
				}

			}
, 			{
				"box" : 				{
					"maxclass" : "inlet",
					"id" : "obj-4",
					"numinlets" : 0,
					"numoutlets" : 1,
					"patching_rect" : [ 215.0, 0.0, 25.0, 25.0 ],
					"outlettype" : [ "" ],
					"comment" : ""
				}

			}
, 			{
				"box" : 				{
					"maxclass" : "inlet",
					"id" : "obj-3",
					"numinlets" : 0,
					"numoutlets" : 1,
					"patching_rect" : [ 145.0, 0.0, 25.0, 25.0 ],
					"outlettype" : [ "" ],
					"comment" : ""
				}

			}
, 			{
				"box" : 				{
					"maxclass" : "inlet",
					"id" : "obj-2",
					"numinlets" : 0,
					"numoutlets" : 1,
					"patching_rect" : [ 74.0, 0.0, 25.0, 25.0 ],
					"outlettype" : [ "" ],
					"comment" : ""
				}

			}
, 			{
				"box" : 				{
					"maxclass" : "inlet",
					"id" : "obj-1",
					"numinlets" : 0,
					"numoutlets" : 1,
					"patching_rect" : [ 2.0, 0.0, 25.0, 25.0 ],
					"outlettype" : [ "" ],
					"comment" : ""
				}

			}
 ],
		"lines" : [ 			{
				"patchline" : 				{
					"source" : [ "obj-7", 0 ],
					"destination" : [ "obj-19", 0 ],
					"hidden" : 1,
					"midpoints" : [ 437.5, 37.0, 435.5, 37.0 ]
				}

			}
, 			{
				"patchline" : 				{
					"source" : [ "obj-6", 0 ],
					"destination" : [ "obj-18", 0 ],
					"hidden" : 1,
					"midpoints" : [ 366.5, 35.0, 364.5, 35.0 ]
				}

			}
, 			{
				"patchline" : 				{
					"source" : [ "obj-5", 0 ],
					"destination" : [ "obj-17", 0 ],
					"hidden" : 1,
					"midpoints" : [ 295.5, 37.0, 293.5, 37.0 ]
				}

			}
, 			{
				"patchline" : 				{
					"source" : [ "obj-4", 0 ],
					"destination" : [ "obj-16", 0 ],
					"hidden" : 1,
					"midpoints" : [ 224.5, 35.0, 222.5, 35.0 ]
				}

			}
, 			{
				"patchline" : 				{
					"source" : [ "obj-3", 0 ],
					"destination" : [ "obj-15", 0 ],
					"hidden" : 1,
					"midpoints" : [ 154.5, 42.0, 152.5, 42.0 ]
				}

			}
, 			{
				"patchline" : 				{
					"source" : [ "obj-2", 0 ],
					"destination" : [ "obj-14", 0 ],
					"hidden" : 1,
					"midpoints" : [ 83.5, 36.0, 81.5, 36.0 ]
				}

			}
, 			{
				"patchline" : 				{
					"source" : [ "obj-1", 0 ],
					"destination" : [ "obj-13", 0 ],
					"hidden" : 1,
					"midpoints" : [ 11.5, 37.0, 9.5, 37.0 ]
				}

			}
, 			{
				"patchline" : 				{
					"source" : [ "obj-8", 0 ],
					"destination" : [ "obj-10", 0 ],
					"hidden" : 1,
					"midpoints" : [ 509.5, 36.0, 507.5, 36.0 ]
				}

			}
 ]
	}

}
